<svg aria-hidden="true" style="position: absolute; width: 0; height: 0; overflow: hidden;" version="1.1" xmlns="http://www.w3.org/2000/svg" xmlns:xlink="http://www.w3.org/1999/xlink">
<defs>
<symbol id="icon-play_circle_outline" viewBox="0 0 24 24">
<path d="M12 20.016q3.281 0 5.648-2.367t2.367-5.648-2.367-5.648-5.648-2.367-5.648 2.367-2.367 5.648 2.367 5.648 5.648 2.367zM12 2.016q4.125 0 7.055 2.93t2.93 7.055-2.93 7.055-7.055 2.93-7.055-2.93-2.93-7.055 2.93-7.055 7.055-2.93zM9.984 16.5v-9l6 4.5z"></path>
</symbol>
<symbol id="icon-chat_bubble_outline" viewBox="0 0 24 24">
<path d="M20.016 15.984v-12h-16.031v14.016l2.016-2.016h14.016zM20.016 2.016q0.797 0 1.383 0.586t0.586 1.383v12q0 0.797-0.586 1.406t-1.383 0.609h-14.016l-3.984 3.984v-18q0-0.797 0.586-1.383t1.383-0.586h16.031z"></path>
</symbol>
<symbol id="icon-storage" viewBox="0 0 24 24">
<path d="M3.984 11.016v1.969h2.016v-1.969h-2.016zM2.016 14.016v-4.031h19.969v4.031h-19.969zM6 6.984v-1.969h-2.016v1.969h2.016zM2.016 3.984h19.969v4.031h-19.969v-4.031zM3.984 17.016v1.969h2.016v-1.969h-2.016zM2.016 20.016v-4.031h19.969v4.031h-19.969z"></path>
</symbol>
<symbol id="icon-insert_photo" viewBox="0 0 24 24">
<path d="M8.484 13.5l-3.469 4.5h13.969l-4.5-6-3.469 4.5zM21 18.984q0 0.797-0.609 1.406t-1.406 0.609h-13.969q-0.797 0-1.406-0.609t-0.609-1.406v-13.969q0-0.797 0.609-1.406t1.406-0.609h13.969q0.797 0 1.406 0.609t0.609 1.406v13.969z"></path>
</symbol>
<symbol id="icon-bar_chart" viewBox="0 0 24 24">
<path d="M16.219 12.984h2.766v6h-2.766v-6zM10.594 5.016h2.813v13.969h-2.813v-13.969zM5.016 9.188h3v9.797h-3v-9.797z"></path>
</symbol>
<symbol id="icon-arrow_forward" viewBox="0 0 24 24">
<path d="M12 3.984l8.016 8.016-8.016 8.016-1.406-1.406 5.578-5.625h-12.188v-1.969h12.188l-5.578-5.625z"></path>
</symbol>
<symbol id="icon-check" viewBox="0 0 24 24">
<path d="M9 16.172l10.594-10.594 1.406 1.406-12 12-5.578-5.578 1.406-1.406z"></path>
</symbol>
<symbol id="icon-tap_and_play" viewBox="0 0 24 24">
<path d="M17.016 1.031q0.797 0 1.383 0.586t0.586 1.383v17.016q0 0.797-0.586 1.383t-1.383 0.586h-2.109q-0.141-2.016-0.938-3.984h3.047v-12.984h-10.031v6q-1.172-0.516-1.969-0.656v-7.359q0-0.797 0.586-1.406t1.383-0.609zM2.016 12q4.547 0 7.758 3.211t3.211 7.805h-1.969q0-3.703-2.648-6.352t-6.352-2.648v-2.016zM2.016 20.016q1.219 0 2.109 0.891t0.891 2.109h-3v-3zM2.016 15.984q2.906 0 4.945 2.063t2.039 4.969h-2.016q0-2.063-1.453-3.539t-3.516-1.477v-2.016z"></path>
</symbol>
<symbol id="icon-pie_chart_outlined" viewBox="0 0 24 24">
<path d="M12.984 19.922q2.531-0.328 4.57-2.367t2.367-4.57h-6.938v6.938zM3.984 12q0 3.047 2.016 5.297t5.016 2.625v-15.844q-2.953 0.375-4.992 2.625t-2.039 5.297zM12.984 4.078v6.938h6.938q-0.328-2.719-2.273-4.664t-4.664-2.273zM12 2.016q4.125 0 7.055 2.93t2.93 7.055-2.93 7.055-7.055 2.93-7.055-2.93-2.93-7.055 2.93-7.055 7.055-2.93z"></path>
</symbol>
<symbol id="icon-star_outline" viewBox="0 0 24 24">
<path d="M12 15.422l3.75 2.25-0.984-4.266 3.328-2.906-4.406-0.375-1.688-4.031-1.688 4.031-4.406 0.375 3.328 2.906-0.984 4.266zM21.984 9.234l-5.438 4.734 1.641 7.031-6.188-3.75-6.188 3.75 1.641-7.031-5.438-4.734 7.172-0.609 2.813-6.609 2.813 6.609z"></path>
</symbol>
<symbol id="icon-menu_book" viewBox="0 0 24 24">
<path d="M17.484 14.344q1.219 0 2.531 0.234v1.5q-0.938-0.234-2.531-0.234-2.813 0-4.5 0.984v-1.688q1.781-0.797 4.5-0.797zM12.984 12.469q1.969-0.797 4.5-0.797 1.219 0 2.531 0.234v1.5q-0.938-0.234-2.531-0.234-2.813 0-4.5 0.984v-1.688zM17.484 10.5q-2.813 0-4.5 0.984v-1.641q1.875-0.844 4.5-0.844 1.219 0 2.531 0.234v1.547q-1.125-0.281-2.531-0.281zM21 18.516v-11.531q-1.547-0.469-3.516-0.469-3.047 0-5.484 1.5v11.484q2.438-1.5 5.484-1.5 1.828 0 3.516 0.516zM17.484 4.5q3.563 0 5.531 1.5v14.578q0 0.188-0.164 0.352t-0.352 0.164q-0.141 0-0.234-0.047-1.922-1.031-4.781-1.031-3.047 0-5.484 1.5-2.016-1.5-5.484-1.5-2.531 0-4.781 1.078-0.047 0-0.117 0.023t-0.117 0.023q-0.188 0-0.352-0.141t-0.164-0.328v-14.672q2.016-1.5 5.531-1.5 3.469 0 5.484 1.5 2.016-1.5 5.484-1.5z"></path>
</symbol>
</defs>
</svg>
